PathFileType	3	(X/Y/Z)	squats_1__view1_aligned.trc
DataRate	CameraRate	NumFrames	NumMarkers	Units	OrigDataRate	OrigDataStartFrame	OrigNumFrames
100.0	100.0	17	19	mm	100.0	136	1660
Frame#	Time	pelvis			neck			head			hip_left			hip_right			knee_left			knee_right			ankle_left			ankle_right			heel_left			heel_right			toe_left			toe_right			shoulder_left			shoulder_right			elbow_left			elbow_right			wrist_left			wrist_right			
		X1	Y1	Z1	X2	Y2	Z2	X3	Y3	Z3	X4	Y4	Z4	X5	Y5	Z5	X6	Y6	Z6	X7	Y7	Z7	X8	Y8	Z8	X9	Y9	Z9	X10	Y10	Z10	X11	Y11	Z11	X12	Y12	Z12	X13	Y13	Z13	X14	Y14	Z14	X15	Y15	Z15	X16	Y16	Z16	X17	Y17	Z17	X18	Y18	Z18	X19	Y19	Z19	
136	1.35000	55.707552	942.564989	-8.548828	98.025416	1524.811731	-45.962350	102.336459	1668.208612	-160.635905	-20.138683	949.245494	-4.536118	131.553798	935.884484	-12.561527	-90.655125	521.679675	35.432875	169.285456	502.578811	2.405770	-136.860203	132.901467	153.820451	197.137357	106.238517	97.657768	-132.227975	87.630682	192.055449	198.285504	63.074115	138.882410	-181.105008	72.914719	-30.600397	203.290357	21.483892	-84.714139	-93.037388	1469.578436	-12.197630	279.955619	1467.535633	-4.658468	-214.676630	1189.524578	-62.633742	361.987843	1187.770018	-88.207807	-251.958093	1194.944159	-322.318241	429.520635	1348.612577	-303.283518
137	1.36000	56.726234	942.243310	-8.724125	99.394411	1524.282577	-46.908621	103.813750	1667.877751	-161.586340	-19.199862	948.936209	-4.829218	132.652322	935.550411	-12.619003	-89.672872	521.638756	34.798414	170.425263	502.539437	1.507547	-136.123199	133.057418	153.001679	198.194963	106.399318	96.725189	-131.587575	87.797904	191.267602	199.341145	63.255129	137.977702	-180.137768	73.013311	-31.444918	204.398280	21.591102	-85.595326	-92.096591	1469.269809	-13.663449	281.790045	1466.354364	-6.667098	-211.379383	1188.526164	-63.746368	359.433237	1185.792961	-90.436053	-241.756571	1195.939355	-324.075927	418.079828	1342.743330	-306.856232
138	1.37000	57.744915	941.921631	-8.899421	100.763407	1523.753424	-47.854892	105.291041	1667.546889	-162.536775	-18.261042	948.626925	-5.122318	133.750846	935.216338	-12.676479	-88.690620	521.597837	34.163954	171.565070	502.500063	0.609325	-135.386196	133.213369	152.182908	199.252569	106.560119	95.792609	-130.947175	87.965125	190.479756	200.396786	63.436144	137.072993	-179.170527	73.111902	-32.289439	205.506203	21.698313	-86.476514	-91.155795	1468.961182	-15.129267	283.624471	1465.173095	-8.675727	-208.082136	1187.527750	-64.858994	356.878630	1183.815905	-92.664298	-231.555049	1196.934551	-325.833613	406.639022	1336.874082	-310.428946
139	1.38000	58.763596	941.599952	-9.074717	102.132402	1523.224270	-48.801163	106.768332	1667.216028	-163.487209	-17.322222	948.317641	-5.415418	134.849370	934.882265	-12.733955	-87.708368	521.556919	33.529494	172.704876	502.460689	-0.288898	-134.649192	133.369320	151.364137	200.310174	106.720919	94.860030	-130.306774	88.132346	189.691909	201.452427	63.617158	136.168284	-178.203286	73.210494	-33.133960	206.614126	21.805523	-87.357701	-90.214998	1468.652554	-16.595086	285.458896	1463.991827	-10.684357	-204.784888	1186.529336	-65.971621	354.324023	1181.838848	-94.892544	-221.353528	1197.929747	-327.591299	395.198216	1331.004835	-314.001660
140	1.39000	59.782277	941.278273	-9.250014	103.501398	1522.695116	-49.747435	108.245623	1666.885167	-164.437644	-16.383402	948.008356	-5.708518	135.947894	934.548192	-12.791432	-86.726116	521.516000	32.895034	173.844683	502.421315	-1.187120	-133.912188	133.525271	150.545366	201.367780	106.881720	93.927450	-129.666374	88.299568	188.904063	202.508068	63.798172	135.263575	-177.236046	73.309085	-33.978481	207.722050	21.912733	-88.238888	-89.274201	1468.343927	-18.060905	287.293322	1462.810558	-12.692987	-201.487641	1185.530922	-67.084247	351.769417	1179.861791	-97.120790	-211.152006	1198.924943	-329.348984	383.757409	1325.135588	-317.574374
141	1.40000	60.800958	940.956594	-9.425310	104.870393	1522.165962	-50.693706	109.722914	1666.554305	-165.388079	-15.444582	947.699072	-6.001618	137.046418	934.214118	-12.848908	-85.743864	521.475081	32.260574	174.984490	502.381941	-2.085343	-133.175185	133.681222	149.726595	202.425386	107.042521	92.994870	-129.025974	88.466789	188.116216	203.563708	63.979187	134.358866	-176.268805	73.407677	-34.823001	208.829973	22.019943	-89.120076	-88.333404	1468.035300	-19.526723	289.127747	1461.629289	-14.701616	-198.190393	1184.532509	-68.196873	349.214810	1177.884734	-99.349035	-200.950484	1199.920139	-331.106670	372.316603	1319.266341	-321.147088
142	1.41000	61.819639	940.634915	-9.600607	106.239389	1521.636808	-51.639977	111.200205	1666.223444	-166.338514	-14.505762	947.389787	-6.294718	138.144942	933.880045	-12.906384	-84.761612	521.434162	31.626114	176.124297	502.342567	-2.983565	-132.438181	133.837173	148.907823	203.482991	107.203322	92.062291	-128.385573	88.634010	187.328369	204.619349	64.160201	133.454157	-175.301565	73.506268	-35.667522	209.937896	22.127153	-90.001263	-87.392607	1467.726673	-20.992542	290.962173	1460.448020	-16.710246	-194.893146	1183.534095	-69.309499	346.660203	1175.907677	-101.577281	-190.748963	1200.915335	-332.864356	360.875796	1313.397093	-324.719802
143	1.42000	62.838321	940.313236	-9.775903	107.608384	1521.107654	-52.586248	112.677496	1665.892583	-167.288949	-13.566941	947.080503	-6.587818	139.243466	933.545972	-12.963860	-83.779360	521.393244	30.991653	177.264104	502.303193	-3.881788	-131.701177	133.993124	148.089052	204.540597	107.364123	91.129711	-127.745173	88.801232	186.540523	205.674990	64.341216	132.549448	-174.334324	73.604860	-36.512043	211.045819	22.234363	-90.882451	-86.451811	1467.418046	-22.458360	292.796599	1459.266751	-18.718875	-191.595899	1182.535681	-70.422126	344.105596	1173.930620	-103.805526	-180.547441	1201.910531	-334.622042	349.434990	1307.527846	-328.292516
144	1.43000	63.857002	939.991557	-9.951199	108.977380	1520.578500	-53.532520	114.154787	1665.561722	-168.239384	-12.628121	946.771219	-6.880918	140.341990	933.211899	-13.021336	-82.797108	521.352325	30.357193	178.403911	502.263819	-4.780010	-130.964174	134.149075	147.270281	205.598203	107.524924	90.197132	-127.104773	88.968453	185.752676	206.730631	64.522230	131.644740	-173.367084	73.703451	-37.356564	212.153742	22.341573	-91.763638	-85.511014	1467.109419	-23.924179	294.631024	1458.085482	-20.727505	-188.298651	1181.537267	-71.534752	341.550990	1171.953563	-106.033772	-170.345919	1202.905727	-336.379727	337.994184	1301.658599	-331.865230
145	1.44000	64.875683	939.669878	-10.126496	110.346375	1520.049346	-54.478791	115.632078	1665.230860	-169.189819	-11.689301	946.461934	-7.174018	141.440514	932.877826	-13.078812	-81.814855	521.311406	29.722733	179.543717	502.224445	-5.678233	-130.227170	134.305026	146.451510	206.655808	107.685725	89.264552	-126.464372	89.135674	184.964829	207.786272	64.703244	130.740031	-172.399843	73.802043	-38.201085	213.261665	22.448784	-92.644825	-84.570217	1466.800792	-25.389998	296.465450	1456.904214	-22.736134	-185.001404	1180.538853	-72.647378	338.996383	1169.976506	-108.262018	-160.144398	1203.900923	-338.137413	326.553377	1295.789351	-335.437944
146	1.45000	65.894364	939.348199	-10.301792	111.715371	1519.520192	-55.425062	117.109369	1664.899999	-170.140254	-10.750481	946.152650	-7.467118	142.539038	932.543753	-13.136288	-80.832603	521.270487	29.088273	180.683524	502.185071	-6.576455	-129.490167	134.460977	145.632739	207.713414	107.846526	88.331972	-125.823972	89.302896	184.176983	208.841913	64.884259	129.835322	-171.432603	73.900635	-39.045606	214.369589	22.555994	-93.526013	-83.629420	1466.492165	-26.855816	298.299876	1455.722945	-24.744764	-181.704156	1179.540439	-73.760004	336.441776	1167.999449	-110.490263	-149.942876	1204.896119	-339.895099	315.112571	1289.920104	-339.010658
147	1.46000	66.518318	939.147943	-10.350692	112.503818	1519.171668	-56.070126	117.975579	1664.739289	-170.755354	-10.186059	945.957394	-7.598404	143.222558	932.338497	-13.102837	-80.215398	521.267081	28.735049	181.415698	502.194587	-7.118107	-129.054223	134.593186	145.145220	208.391735	107.994582	87.768318	-125.465336	89.441487	183.716236	209.518261	65.047722	129.294953	-170.791971	73.970593	-39.560021	215.067603	22.640296	-94.050286	-83.132980	1466.251495	-27.809516	299.447702	1454.883532	-26.200602	-179.424909	1178.807763	-74.075966	334.469357	1166.563290	-111.759350	-142.779105	1204.524502	-340.100889	306.583273	1284.295351	-341.000145
148	1.47000	67.142272	938.947688	-10.399592	113.292265	1518.823144	-56.715191	118.841790	1664.578579	-171.370454	-9.621637	945.762137	-7.729690	143.906077	932.133241	-13.069387	-79.598193	521.263674	28.381825	182.147872	502.204103	-7.659759	-128.618279	134.725395	144.657702	209.070056	108.142639	87.204664	-125.106699	89.580079	183.255488	210.194610	65.211186	128.754584	-170.151339	74.040551	-40.074435	215.765618	22.724598	-94.574559	-82.636541	1466.010826	-28.763216	300.595528	1454.044119	-27.656441	-177.145661	1178.075087	-74.391928	332.496939	1165.127130	-113.028436	-135.615335	1204.152885	-340.306679	298.053974	1278.670597	-342.989633
149	1.48000	67.766225	938.747432	-10.448492	114.080712	1518.474621	-57.360255	119.708000	1664.417869	-171.985554	-9.057214	945.566881	-7.860975	144.589597	931.927986	-13.035937	-78.980988	521.260267	28.028601	182.880046	502.213620	-8.201412	-128.182335	134.857604	144.170183	209.748377	108.290696	86.641009	-124.748063	89.718670	182.794741	210.870958	65.374649	128.214216	-169.510708	74.110509	-40.588850	216.463633	22.808900	-95.098832	-82.140101	1465.770156	-29.716916	301.743354	1453.204705	-29.112279	-174.866413	1177.342411	-74.707891	330.524520	1163.690970	-114.297523	-128.451564	1203.781269	-340.512469	289.524676	1273.045843	-344.979120
150	1.49000	68.390179	938.547177	-10.497392	114.869159	1518.126097	-58.005319	120.574211	1664.257158	-172.600653	-8.492792	945.371624	-7.992261	145.273117	931.722730	-13.002487	-78.363783	521.256861	27.675377	183.612220	502.223136	-8.743064	-127.746391	134.989814	143.682664	210.426698	108.438753	86.077355	-124.389426	89.857262	182.333994	211.547306	65.538113	127.673847	-168.870076	74.180468	-41.103265	217.161647	22.893202	-95.623105	-81.643661	1465.529487	-30.670615	302.891181	1452.365292	-30.568118	-172.587166	1176.609735	-75.023853	328.552101	1162.254810	-115.566609	-121.287793	1203.409652	-340.718259	280.995378	1267.421090	-346.968608
151	1.50000	69.014133	938.346921	-10.546291	115.657606	1517.777573	-58.650384	121.440422	1664.096448	-173.215753	-7.928370	945.176368	-8.123546	145.956636	931.517474	-12.969036	-77.746578	521.253454	27.322153	184.344395	502.232652	-9.284716	-127.310448	135.122023	143.195146	211.105019	108.586810	85.513701	-124.030790	89.995853	181.873246	212.223655	65.701576	127.133478	-168.229444	74.250426	-41.617679	217.859662	22.977504	-96.147378	-81.147222	1465.288818	-31.624315	304.039007	1451.525879	-32.023956	-170.307918	1175.877059	-75.339815	326.579682	1160.818651	-116.835695	-114.124022	1203.038036	-340.924049	272.466080	1261.796336	-348.958095
152	1.51000	69.638087	938.146666	-10.595191	116.446053	1517.429049	-59.295448	122.306632	1663.935738	-173.830853	-7.363948	944.981111	-8.254832	146.640156	931.312219	-12.935586	-77.129373	521.250047	26.968929	185.076569	502.242169	-9.826368	-126.874504	135.254232	142.707627	211.783340	108.734866	84.950047	-123.672153	90.134444	181.412499	212.900003	65.865040	126.593109	-167.588813	74.320384	-42.132094	218.557677	23.061806	-96.671651	-80.650782	1465.048148	-32.578015	305.186833	1450.686466	-33.479795	-168.028670	1175.144382	-75.655777	324.607263	1159.382491	-118.104782	-106.960252	1202.666419	-341.129838	263.936781	1256.171582	-350.947583
